<svg xmlns="http://www.w3.org/2000/svg" width="42.42" height="41.311" viewBox="0 0 42.42 41.311">
  <g id="Grupo_8" data-name="Grupo 8" transform="translate(50.42 -26.393) rotate(180)">
    <path id="Trazado_18" data-name="Trazado 18" d="M2.722-44.34H33.13L19.846-31.055a2.744,2.744,0,0,0,0,3.866,2.711,2.711,0,0,0,3.838,0l17.94-17.94a2.711,2.711,0,0,0,0-3.838l-17.94-17.94a2.711,2.711,0,0,0-3.838,0,2.711,2.711,0,0,0,0,3.838L33.13-49.784H2.722A2.73,2.73,0,0,0,0-47.062,2.73,2.73,0,0,0,2.722-44.34Z" transform="translate(8 0)" fill="#797979"/>
  </g>
</svg>
