<svg xmlns="http://www.w3.org/2000/svg" width="350" height="222.727" viewBox="0 0 350 222.727">
  <path id="Trazado_14" data-name="Trazado 14" d="M238.636,40A47.528,47.528,0,0,0,286.2-7.724a47.528,47.528,0,0,0-47.568-47.727A47.663,47.663,0,0,0,190.909-7.724,47.663,47.663,0,0,0,238.636,40ZM111.364,40A47.528,47.528,0,0,0,158.932-7.724a47.528,47.528,0,0,0-47.568-47.727A47.663,47.663,0,0,0,63.636-7.724,47.664,47.664,0,0,0,111.364,40Zm0,31.818C74.3,71.822,0,90.435,0,127.5v23.864a15.956,15.956,0,0,0,15.909,15.909H206.818a15.956,15.956,0,0,0,15.909-15.909V127.5C222.727,90.435,148.432,71.822,111.364,71.822Zm127.273,0c-4.614,0-9.864.318-15.432.8.318.159.477.477.636.636,18.136,13.2,30.7,30.864,30.7,54.25v23.864a47.8,47.8,0,0,1-2.864,15.909h82.409A15.956,15.956,0,0,0,350,151.367V127.5C350,90.435,275.7,71.822,238.636,71.822Z" transform="translate(0 55.451)" fill="rgba(0,0,0,0.03)"/>
</svg>
