<svg xmlns="http://www.w3.org/2000/svg" width="250.542" height="182.212" viewBox="0 0 250.542 182.212">
  <path id="Trazado_13" data-name="Trazado 13" d="M159.436,31.861a45.54,45.54,0,0,0,45.553-45.553,45.54,45.54,0,0,0-45.553-45.553,45.541,45.541,0,0,0-45.553,45.553A45.541,45.541,0,0,0,159.436,31.861ZM56.942,9.084V-13.692A11.422,11.422,0,0,0,45.553-25.08,11.422,11.422,0,0,0,34.165-13.692V9.084H11.388a11.388,11.388,0,0,0,0,22.776H34.165V54.637a11.388,11.388,0,0,0,22.777,0V31.861H79.718a11.388,11.388,0,1,0,0-22.776ZM159.436,54.637c-30.407,0-91.106,15.26-91.106,45.553v11.388a11.422,11.422,0,0,0,11.388,11.388H239.154a11.422,11.422,0,0,0,11.388-11.388V100.19C250.542,69.9,189.843,54.637,159.436,54.637Z" transform="translate(0 59.245)" fill="rgba(0,0,0,0.03)"/>
</svg>
