<svg xmlns="http://www.w3.org/2000/svg" width="256.466" height="179.526" viewBox="0 0 256.466 179.526">
  <path id="Trazado_16" data-name="Trazado 16" d="M141.056-8.243H12.823A12.861,12.861,0,0,0,0,4.58,12.861,12.861,0,0,0,12.823,17.4H141.056A12.861,12.861,0,0,0,153.88,4.58,12.861,12.861,0,0,0,141.056-8.243Zm0-51.293H12.823A12.861,12.861,0,0,0,0-46.713,12.861,12.861,0,0,0,12.823-33.89H141.056A12.861,12.861,0,0,0,153.88-46.713,12.861,12.861,0,0,0,141.056-59.537ZM205.173,43.05V4.58a12.823,12.823,0,0,0-25.647,0V43.05h-38.47a12.823,12.823,0,0,0,0,25.647h38.47v38.47a12.823,12.823,0,0,0,25.647,0V68.7h38.47a12.823,12.823,0,1,0,0-25.647ZM12.823,68.7h76.94a12.823,12.823,0,1,0,0-25.647H12.823a12.823,12.823,0,1,0,0,25.647Z" transform="translate(0 59.536)" fill="rgba(0,0,0,0.03)"/>
</svg>
